<!--?xml version="1.0" standalone="no"?-->
              <svg id="sw-js-blob-svg" viewBox="0 0 100 100" xmlns="http://www.w3.org/2000/svg" version="1.1">
                    <defs> 
                        <linearGradient id="sw-gradient" x1="0" x2="1" y1="1" y2="0">
                            <stop id="stop1" stop-color="rgba(255, 156.369, 0, 1)" offset="0%"></stop>
                            <stop id="stop2" stop-color="rgba(255, 190.062, 0, 1)" offset="100%"></stop>
                        </linearGradient>
                    </defs>
                <path fill="none" d="M26.8,-30.6C32.2,-27.4,32.4,-16.6,31.5,-7.6C30.7,1.3,28.7,8.4,24.9,13.7C21.1,19.1,15.3,22.7,8.2,27.4C1,32.2,-7.5,38.1,-13.2,36.1C-18.8,34.1,-21.6,24.1,-23.8,15.9C-26.1,7.7,-27.7,1.2,-26.5,-4.4C-25.2,-10.1,-21,-15.1,-16.1,-18.5C-11.2,-21.8,-5.6,-23.5,2.5,-26.5C10.7,-29.6,21.4,-33.9,26.8,-30.6Z" width="100%" height="100%" transform="translate(50 50)" stroke-width="1" style="transition: all 0.3s ease 0s;" stroke="url(#sw-gradient)"></path>
              </svg>